<svg width="611" height="611" viewBox="0 0 611 611" fill="none" xmlns="http://www.w3.org/2000/svg">
<path d="M205.403 424.737L203.772 425.43C191.196 430.438 179.778 438.001 169.516 448.119C163.776 451.965 144.228 474.452 110.871 515.58C102.988 523.494 96.4741 528.577 91.3307 530.829C84.4347 534.108 79.1795 533.702 75.5648 529.614C70.0701 521.825 66.1496 510.9 63.8028 496.838C56.6861 452.631 53.0097 402.999 52.7739 347.944C51.7572 298.425 54.149 260.778 59.9492 235.001C66.2159 209.791 70.7758 195.059 73.6298 190.805C76.8256 183.57 80.6709 176.939 85.1658 170.912C95.9438 154.482 116.48 139.633 146.774 126.364C176.371 115.659 220.004 105.472 277.673 95.8042C345.208 84.7063 399.015 78.8407 439.094 78.2068C485.276 77.2362 514.137 79.4264 525.678 84.7778C537.025 90.1534 543.434 94.1628 544.906 96.805C551.182 102.213 555.301 110.265 557.263 120.96C561.943 146.799 552.833 188.571 529.931 246.276C514.007 286.025 497.973 320.043 481.829 348.331C470.274 368.376 457.001 385.594 442.01 399.988C419.865 419.849 397.276 430.219 374.243 431.097C365.752 432.095 353.932 432.009 338.785 430.84C284.748 423.492 253.79 419.921 245.912 420.126C230.671 419.477 217.168 421.014 205.403 424.737Z" fill="#1D305D" fill-opacity="0.05"/>
<path d="M226.723 245.143L226.52 245.237C219.849 248.464 215.469 251.441 213.379 254.167C209.884 258.958 207.347 264.5 205.767 270.795C204.985 275.805 204.791 278.748 205.186 279.625C205.406 281.505 205.918 283.264 206.721 284.904L208.183 287.23L211.579 290.949L215.444 294.082L219.716 296.692C222.699 298.258 225.871 299.558 229.231 300.593C230.799 301.318 236.059 302.48 245.011 304.079L266.266 306.927L281.712 309.496C285.577 310.013 287.886 310.276 288.64 310.288C296.511 310.732 302.06 310.038 305.289 308.206C308.247 306.999 310.718 304.536 312.702 300.819C313.99 297.881 314.513 294.663 314.273 291.165C314.032 287.668 313.177 284.341 311.708 281.185C310.763 278.545 308.304 275.493 304.332 272.026C298.803 266.882 289.459 261.936 276.3 257.189C258.865 251.264 248.266 247.94 244.506 247.215C239.46 245.752 233.532 245.06 226.723 245.143Z" fill="#FFC517" fill-opacity="0.45"/>
<path d="M87.9666 361.479C92.9765 365.001 97.2935 372.68 101.391 379.986C104.966 386.359 108.391 392.482 111.951 394.985C112.191 395.154 112.44 395.311 112.697 395.454C113.675 395.997 114.672 396.263 115.659 396.263C120.989 396.263 125.478 388.684 125.478 377.787C125.478 373.976 124.935 369.72 123.684 365.173C121.462 357.093 117.005 348.08 112.463 338.894C109.393 332.683 106.292 326.395 103.789 320.239C105.387 323.044 107.178 325.574 109.113 327.638C111.886 330.597 114.938 332.609 117.858 334.535C121.899 337.201 125.688 339.706 128.351 344.347C130.199 347.569 131.512 351.831 132.847 356.17C134.826 362.602 136.862 369.262 140.851 372.547C144.516 375.565 149.771 375.7 155.355 375.7L156.315 375.699C156.639 375.699 156.964 375.698 157.29 375.698C161.372 375.698 165.598 375.776 169.617 376.871C170.061 376.992 170.505 377.126 170.945 377.271C177.177 379.326 182.867 383.648 187.009 386.798C189.311 388.548 191.197 389.988 192.397 390.384C192.635 390.463 192.861 390.506 193.074 390.506C194.22 390.506 194.492 389.347 194.533 388.101C194.571 386.972 194.432 385.457 194.273 383.701C194.04 381.146 193.759 378.047 193.868 374.737C193.948 372.336 194.234 369.811 194.511 367.382C195.233 361.031 196.038 354.683 191.9 353.683C191.872 353.677 191.838 353.68 191.81 353.674C196.651 350.654 200.658 347.369 204.237 344.251C205.105 343.494 205.906 342.785 206.733 342.054C207.518 341.359 208.271 340.693 209.029 340.033C209.974 339.209 210.909 338.41 211.813 337.637C214.471 335.366 216.919 333.267 218.917 331.143C219.439 330.882 219.941 330.568 220.383 330.169C222.555 328.209 223.505 324.716 224.252 321.585C224.338 321.223 224.376 321.061 224.459 320.705C224.512 320.479 224.605 320.085 224.657 319.867L224.659 319.859L224.804 319.254C225.572 316.073 226.318 313.182 223.786 311.575C222.973 311.059 221.828 310.687 220.628 310.295C218.673 309.655 216.515 308.935 214.909 307.497C214.343 306.12 213.951 304.925 213.87 304.262C213.862 304.193 213.857 304.124 213.856 304.055C213.856 303.928 213.876 303.886 213.881 303.878C213.885 303.876 213.897 303.87 213.942 303.87C214.155 303.87 214.507 303.99 215.073 304.19C215.984 304.514 217.273 304.973 218.776 304.973C219.094 304.973 219.423 304.953 219.759 304.906C220.485 304.806 221.24 304.585 222.012 304.286C223.67 303.644 225.451 302.624 227.247 301.596C229.145 300.51 231.068 299.41 232.932 298.689C235.102 297.848 237.211 297.514 239.145 297.367C240.24 297.284 241.277 297.261 242.239 297.24C243.057 297.222 243.825 297.205 244.521 297.152C246.025 297.038 247.311 296.749 247.909 296.139C248.585 295.45 248.283 294.569 247.391 293.694C246.259 292.585 243.879 291.152 241.377 290.324L241.451 290.304C242.968 289.892 244.455 289.484 245.74 289.047C245.61 289.373 245.668 289.733 245.968 290.087C248.507 293.084 271.733 299.286 294.649 305.426C294.728 305.447 294.813 305.44 294.887 305.404C294.962 305.369 295.021 305.308 295.055 305.233L307.749 276.827C310.176 277.65 312.599 278.481 315.021 279.319L301.245 308.591L274.199 312.106L257.802 308.329C257.73 308.312 257.654 308.319 257.586 308.349C257.518 308.379 257.461 308.43 257.424 308.495C255.858 311.229 254.29 313.945 252.673 316.576C254.454 312.605 253.154 309.791 251.648 307.168L268.751 309.552C268.84 309.565 268.93 309.542 269.002 309.489C269.074 309.437 269.123 309.358 269.139 309.27C269.155 309.182 269.136 309.092 269.087 309.017C269.037 308.943 268.961 308.89 268.874 308.871L241.497 302.82C235.051 301.399 232.968 300.945 230.656 300.441C230.567 300.424 230.476 300.443 230.4 300.493C230.325 300.542 230.273 300.62 230.253 300.708C230.234 300.796 230.25 300.888 230.298 300.964C230.345 301.041 230.421 301.096 230.508 301.118C232.757 301.608 234.965 302.089 241.348 303.497L260.158 307.654L251.045 306.384C250.98 306.375 250.915 306.384 250.855 306.411C250.796 306.438 250.745 306.48 250.709 306.534C250.673 306.589 250.652 306.652 250.65 306.717C250.648 306.782 250.665 306.846 250.697 306.902C252.482 309.966 254.178 312.884 251.406 317.572C248.572 322.364 241.084 328.98 233.035 333.333C225 337.677 216.432 339.753 207.812 341.839C207.726 341.86 207.651 341.913 207.603 341.987C207.555 342.061 207.537 342.151 207.553 342.238C207.569 342.325 207.618 342.403 207.689 342.455C207.761 342.508 207.849 342.531 207.937 342.52C218.927 341.133 230.027 339.74 238.415 334.1C246.736 328.504 252.352 318.75 257.898 309.062L274.105 312.796L274.228 312.802L301.524 309.254C301.641 309.239 301.742 309.165 301.793 309.058L315.813 279.265C315.834 279.221 315.845 279.173 315.846 279.125C315.847 279.076 315.838 279.028 315.819 278.983C315.8 278.938 315.772 278.898 315.736 278.865C315.701 278.831 315.659 278.806 315.613 278.79C313.076 277.914 310.535 277.037 308.035 276.19L309.649 272.578C309.67 272.533 309.68 272.483 309.68 272.434C309.679 272.384 309.668 272.335 309.647 272.29C309.626 272.245 309.596 272.204 309.558 272.172C309.52 272.14 309.475 272.116 309.427 272.103L220.073 246.842C219.995 246.82 219.912 246.825 219.838 246.858C219.764 246.891 219.704 246.948 219.668 247.021C213.902 258.582 208.112 270.19 205.48 275.722C204.189 278.434 203.602 279.785 203.579 280.458C203.574 280.603 203.592 280.748 203.655 280.882C203.707 280.99 203.782 281.075 203.875 281.14C204.078 281.282 204.343 281.301 204.545 281.308C204.631 281.311 204.732 281.311 204.824 281.312C204.936 281.312 205.046 281.313 205.166 281.317C205.192 281.318 205.229 281.324 205.255 281.326L206.695 286.56C206.461 287.092 206.216 287.619 205.961 288.141C205.633 288.799 205.291 289.451 204.936 290.095C202.438 290.982 199.647 293.143 197.536 295.784C195.939 297.782 194.712 300.073 193.472 302.386C191.8 305.507 190.094 308.684 187.402 311.391C187.105 311.689 186.801 311.979 186.488 312.26C183.901 314.594 180.635 316.585 177.628 318.417C175.129 319.94 172.791 321.363 171.233 322.769C170.905 323.064 170.654 323.361 170.393 323.657C170.287 323.61 170.182 323.563 170.074 323.516C167.786 322.515 164.835 321.244 160.759 314.127C159.185 311.38 157.446 307.765 155.517 303.753C149.332 290.894 141.16 273.856 130.317 269.202C128.155 268.275 125.892 267.839 123.609 267.839C123.483 267.839 123.364 267.84 123.238 267.843C110.544 268.104 97.453 281.694 97.8101 299.036C97.8413 300.548 97.9962 302.093 98.2183 303.656C97.7643 301.572 97.4353 299.497 97.2517 297.479C96.289 286.897 99.2805 277.901 106.214 270.526C109.051 267.508 112.548 264.761 115.995 262.053C118.43 260.14 120.838 258.246 122.949 256.302C123.044 256.924 123.309 257.581 123.793 258.276C127.346 263.39 143.009 270.711 153.236 274.656C159.324 277.004 163.626 278.21 165.708 278.21C166.246 278.21 166.718 278.132 167.027 277.898C167.656 277.423 167.347 276.654 166.851 275.999L166.851 275.999C166.803 275.935 166.753 275.873 166.703 275.812C165.631 274.507 163.208 272.567 160.622 270.496C157.477 267.975 154.062 265.238 152.274 263.06C151.72 262.386 151.348 261.783 151.096 261.234C152.528 261.781 154.03 262.205 155.568 262.626C157.607 263.184 159.699 263.757 161.765 264.668C168.589 267.677 175.2 274.399 177.927 280.158C178.623 281.627 179.028 282.989 179.204 284.223C178.839 284.512 178.478 284.846 178.115 285.192C176.579 286.658 174.614 288.523 171.061 288.523C170.275 288.523 169.409 288.432 168.446 288.222C163.984 287.249 157.56 283.744 151.874 280.29C149.148 278.634 146.611 277.002 144.547 275.675C143.147 274.774 141.967 274.015 141.104 273.491C140.146 272.909 139.515 272.574 139.23 272.524H139.231C139.198 272.518 139.165 272.515 139.132 272.515C139.077 272.515 138.896 272.526 138.791 272.699C138.663 272.91 138.795 273.117 138.805 273.134C139.202 273.816 143.44 277.016 148.954 280.385C156.869 285.22 167.769 290.618 173.858 290.85C174.001 290.856 174.13 290.858 174.268 290.858C175.458 290.858 176.47 290.652 177.301 290.258C179.43 289.25 180.215 287.125 179.947 284.535C180.258 284.327 180.544 284.199 180.826 284.199H180.845H180.844C183.006 284.236 185.945 290.475 189.079 297.28C189.119 297.361 189.189 297.423 189.274 297.453C189.359 297.483 189.452 297.478 189.534 297.441C189.616 297.403 189.68 297.335 189.712 297.251C189.745 297.166 189.743 297.073 189.708 296.99C186.746 290.555 183.59 283.553 180.856 283.506H180.855L180.826 283.505C180.481 283.505 180.154 283.636 179.832 283.81C179.617 282.558 179.2 281.228 178.553 279.862C175.755 273.952 169.022 267.11 162.044 264.033C159.924 263.099 157.784 262.513 155.751 261.957C154.001 261.478 152.332 261.018 150.791 260.381C150.784 260.35 150.769 260.315 150.763 260.284C150.374 258.33 152.034 257.072 154.9 256.502C156.496 256.184 158.373 256.108 160.319 256.029C163.018 255.921 165.861 255.81 168.104 254.989C172.062 253.542 174.047 249.948 174.209 241.17C174.345 233.75 173.18 222.507 171.053 211.906C171.422 212.021 171.787 212.113 172.143 212.113C172.198 212.113 172.258 212.111 172.314 212.107C173.755 211.997 174.929 210.509 174.764 208.347C174.662 207.02 174.066 205.422 172.742 203.64C171.567 202.058 169.775 200.322 167.6 198.808C165.456 193.249 162.18 189.136 155.901 189.136C152.829 189.136 149.072 190.124 144.425 192.358C137.231 195.818 127.832 202.302 118.507 208.733L117.139 209.676C111.687 200.43 104.966 191.887 98.0915 191.887C96.8325 191.887 95.5739 192.172 94.3259 192.785C85.5865 197.072 77.1021 217.746 80.7538 225.188C81.5258 226.761 82.844 227.765 84.7772 227.902C84.9315 227.913 85.0931 227.919 85.2544 227.919C91.6143 227.919 104.164 219.459 116.919 210.67C118.781 213.873 120.507 217.165 122.045 220.241C128.867 233.887 131.646 242.477 127.7 249.578C127.618 249.725 127.501 249.866 127.414 250.013C125.371 251.553 123.222 253.247 122.948 255.337C120.756 257.412 118.202 259.435 115.565 261.507C112.128 264.207 108.587 266.988 105.708 270.05C98.6307 277.578 95.58 286.773 96.5597 297.541C97.043 302.853 98.5106 308.554 100.666 313.812C103.384 322.094 107.664 330.752 111.841 339.201C116.391 348.405 120.814 357.355 123.015 365.357C124.25 369.848 124.784 374.041 124.784 377.787C124.784 388.716 120.293 395.569 115.658 395.569C114.799 395.569 113.917 395.34 113.033 394.848C112.797 394.717 112.569 394.573 112.349 394.418C108.95 392.029 105.611 386.093 101.995 379.647C97.9302 372.401 93.5337 364.546 88.3644 360.913C85.8168 359.122 83.0863 358.355 80.2286 358.355C71.7913 358.355 62.2282 365.064 52.8088 371.654C52.7334 371.707 52.6822 371.787 52.6662 371.878C52.6502 371.968 52.6708 372.061 52.7235 372.137C52.7762 372.212 52.8567 372.263 52.9472 372.279C53.0377 372.295 53.1309 372.275 53.2062 372.222C62.7054 365.576 72.0614 359.048 80.2286 359.048C82.9534 359.047 85.5431 359.776 87.9666 361.479ZM238.026 333.525C231.351 338.013 222.893 339.762 214.046 341.01C220.622 339.316 227.148 337.303 233.363 333.942C240.101 330.299 246.448 325.076 250.093 320.576C246.605 325.75 242.763 330.339 238.026 333.525ZM141.589 274.612C142.453 275.156 143.314 275.705 144.172 276.258C146.231 277.582 148.783 279.224 151.513 280.882C153.913 282.34 156.462 283.809 158.955 285.107C155.617 283.464 152.271 281.598 149.316 279.792C146.054 277.8 143.355 275.934 141.589 274.612ZM177.004 289.631C176.286 289.972 175.38 290.165 174.268 290.165C174.138 290.165 174.019 290.162 173.884 290.157C171.96 290.084 169.511 289.462 166.814 288.497C167.323 288.651 167.826 288.797 168.298 288.9C169.304 289.12 170.219 289.217 171.06 289.217C174.908 289.217 177.048 287.168 178.593 285.694C178.823 285.474 179.056 285.257 179.294 285.045C179.403 287.211 178.642 288.856 177.004 289.631ZM151.738 263.5C153.583 265.747 157.069 268.537 160.188 271.037C162.809 273.137 165.153 275.018 166.167 276.252C166.213 276.308 166.258 276.365 166.298 276.417C166.834 277.126 166.668 277.3 166.608 277.345C166.491 277.434 166.219 277.517 165.708 277.517C163.776 277.517 159.595 276.365 153.486 274.008C143.176 270.032 127.766 262.779 124.362 257.88C123.8 257.072 123.596 256.333 123.634 255.634C124.116 255.173 124.603 254.712 125.044 254.244C126.177 253.038 127.131 251.791 127.92 250.503C128.006 250.438 128.086 250.376 128.172 250.311C129.687 249.17 131.275 247.978 132.219 246.641C133.481 244.854 133.579 242.834 133.694 240.663C133.844 237.814 134.017 234.568 136.635 230.737C136.963 230.256 137.338 229.765 137.738 229.27C138.364 231.81 138.877 234.865 139.41 238.069C140.271 243.25 141.189 248.785 142.761 252.856C143.064 253.641 143.39 254.371 143.749 255.041C145.397 258.12 147.66 259.767 150.215 260.878C150.465 261.677 150.955 262.547 151.738 263.5ZM173.516 241.157C173.355 249.881 171.389 253.051 167.866 254.338C165.746 255.114 163.024 255.227 160.291 255.337C158.359 255.415 156.425 255.492 154.764 255.822C152.061 256.36 149.836 257.664 150.056 260.036C147.785 258.972 145.82 257.441 144.36 254.713C144.018 254.074 143.701 253.368 143.407 252.606C141.866 248.613 140.958 243.162 140.093 237.955C139.532 234.575 138.985 231.297 138.289 228.615C143.781 222.198 154.484 214.903 161.032 212.284C163.495 211.299 165.344 210.986 166.78 210.986C168.32 210.986 169.399 211.344 170.296 211.658C172.465 222.331 173.653 233.707 173.516 241.157ZM138.066 227.806C137.868 227.112 137.661 226.452 137.435 225.866C136.24 222.77 134.606 221.312 133.378 220.216C131.901 218.897 131.083 218.204 132.183 215.563C134.29 210.508 143.238 199.042 151.868 196.316C153.308 195.861 154.81 195.63 156.32 195.632C160.306 195.632 164.036 197.216 167.029 199.26C167.841 201.406 168.504 203.791 169.111 206.302C169.478 207.82 169.82 209.344 170.138 210.873C169.281 210.586 168.219 210.293 166.781 210.293C165.24 210.293 163.302 210.63 160.775 211.641C154.276 214.24 143.738 221.369 138.066 227.806ZM172.186 204.054C173.454 205.759 173.984 207.235 174.073 208.4C174.219 210.319 173.196 211.344 172.261 211.415C172.222 211.418 172.182 211.42 172.143 211.42C171.79 211.42 171.388 211.295 170.896 211.126C170.555 209.458 170.184 207.795 169.785 206.139C169.268 204.001 168.704 201.909 168.027 199.961C169.759 201.278 171.197 202.723 172.186 204.054ZM85.255 227.226C85.1077 227.226 84.9651 227.221 84.827 227.211C83.1556 227.092 82.0472 226.249 81.3767 224.883C77.9297 217.857 86.1584 197.565 94.6317 193.407C95.7874 192.84 96.9413 192.581 98.0918 192.581C104.603 192.581 111.143 200.873 116.564 210.073C103.693 218.938 91.357 227.226 85.255 227.226ZM122.666 219.931C121.137 216.874 119.395 213.541 117.494 210.274L118.901 209.304C128.244 202.861 137.593 196.414 144.726 192.984C149.322 190.774 152.972 189.83 155.901 189.83C161.416 189.83 164.491 193.203 166.578 198.13C163.638 196.296 160.099 194.939 156.32 194.939C154.793 194.939 153.23 195.159 151.659 195.655C142.763 198.465 133.694 210.135 131.543 215.297C130.274 218.341 131.346 219.333 132.916 220.734C134.119 221.808 135.652 223.175 136.787 226.116C137.054 226.809 137.299 227.593 137.528 228.443C136.99 229.087 136.486 229.725 136.061 230.345C133.33 234.344 133.152 237.756 133 240.627C132.884 242.834 132.779 244.644 131.651 246.242C130.975 247.2 129.921 248.094 128.759 248.991C132.188 241.707 129.177 232.955 122.666 219.931ZM126.086 251.953C125.607 252.564 125.101 253.17 124.538 253.768C124.396 253.92 124.229 254.068 124.082 254.219C124.514 253.443 125.211 252.698 126.086 251.953ZM205.402 290.68C206.031 290.477 206.636 290.347 207.181 290.347C208.037 290.347 208.74 290.613 209.25 291.177C210.348 292.387 210.664 295.012 211.007 298.032C211.325 300.831 211.67 303.907 212.85 306.033C213.257 306.766 213.764 307.38 214.331 307.907C215.541 310.823 217.47 314.429 219.018 315.848C219.702 316.474 220.343 316.712 220.943 316.712C221.617 316.712 222.178 316.409 222.58 316.196C222.914 316.02 223.085 315.94 223.202 315.94C223.231 315.94 223.27 315.939 223.338 316.039C223.964 316.964 224.151 321.905 221.697 326.342C220.891 327.8 219.795 329.192 218.493 330.584C217.813 330.904 217.095 331.094 216.387 331.094C214.794 331.094 213.235 330.216 212.423 328.001C211.76 326.194 211.598 323.52 211.426 320.606C211.235 317.37 211.031 313.865 210.038 311.158C209.961 310.946 209.877 310.736 209.787 310.529C208.595 307.796 206.459 306.079 204.658 304.626C203.231 303.474 202.067 302.524 201.568 301.38C201.508 301.243 201.458 301.103 201.419 300.959C200.832 298.83 202.504 295.821 204.496 292.299C204.797 291.767 205.101 291.225 205.402 290.68ZM220.412 310.953C221.643 311.356 222.691 311.701 223.415 312.16C225.202 313.294 225.029 315.185 224.405 317.927C224.353 316.876 224.181 316.047 223.912 315.65C223.734 315.387 223.493 315.246 223.202 315.246C222.873 315.246 222.524 315.441 222.256 315.582C221.835 315.805 221.42 316.018 220.943 316.018C220.549 316.018 220.068 315.869 219.487 315.336C218.218 314.174 216.637 311.366 215.473 308.799C217.038 309.845 218.853 310.443 220.412 310.953ZM294.543 304.679C271.496 298.505 248.841 292.405 246.497 289.638C246.287 289.391 246.321 289.281 246.51 289.121C247.384 288.38 250.637 287.899 254.777 287.307C259.799 286.59 265.915 285.72 269.576 283.852C273.589 281.805 274.656 278.57 275.567 275.828C276.295 273.639 276.902 271.865 278.651 270.973C279.006 270.795 279.38 270.659 279.766 270.567L279.741 270.573L279.742 270.572L279.767 270.567C280.416 270.409 281.192 270.332 282.086 270.332C287.529 270.332 296.874 273.161 307.09 276.604L294.543 304.679ZM204.826 280.617C204.728 280.617 204.644 280.616 204.567 280.614C204.364 280.607 204.299 280.584 204.28 280.573C204.278 280.569 204.269 280.55 204.271 280.48C204.288 279.993 204.772 278.818 206.105 276.019C208.71 270.546 214.438 259.056 220.16 247.586L308.852 272.661L307.374 275.968C297.133 272.514 287.653 269.639 282.085 269.639C281.156 269.639 280.322 269.718 279.603 269.893L279.601 269.894C279.133 270.008 278.712 270.163 278.336 270.356C276.291 271.399 275.616 273.484 274.909 275.61C274 278.345 273.002 281.325 269.261 283.234C265.727 285.037 259.75 285.896 254.679 286.621C252.469 286.937 250.402 287.232 248.803 287.586C249.049 287.407 249.297 287.229 249.482 287.04C250.782 285.703 250.458 284.207 249.171 282.955C248.774 282.569 248.251 282.215 247.678 281.888C248.053 281.789 248.397 281.681 248.691 281.557C249.398 281.258 249.877 280.864 250.157 280.406C251.021 278.993 249.86 277.368 249.06 276.879C248.799 276.719 248.546 276.651 248.284 276.651C247.948 276.651 247.616 276.767 247.297 276.875C246.781 277.049 246.151 277.261 245.184 277.261C245.085 277.261 244.988 277.259 244.882 277.254C244.266 277.228 243.521 277.117 242.663 276.989C241.387 276.798 239.882 276.573 238.317 276.573C238.218 276.573 238.117 276.581 238.018 276.583C239.732 275.381 241.273 274.176 242.242 273.019C243.064 272.036 243.513 271.045 243.513 270.206C243.513 269.04 242.665 268.318 241.269 268.318C241.007 268.32 240.745 268.341 240.486 268.383C237.493 268.847 232.161 271.936 228.762 274.415C227.37 275.431 226.289 276.354 225.356 277.15C223.983 278.321 222.958 279.192 221.718 279.739C220.783 280.15 219.725 280.377 218.84 280.377C217.668 280.377 217.087 280.008 217.036 279.506C217.017 279.31 217.06 279.05 217.178 278.713C217.417 278.03 217.91 277.174 218.481 276.187C219.173 274.989 219.967 273.619 220.452 272.235C220.837 271.136 221.027 270.03 221.027 269.062C221.027 267.51 220.501 265.981 219.128 265.981C219.061 265.981 218.989 265.986 218.92 265.994C216.952 266.224 213.813 269.832 211.697 274.021L211.591 274.234C210.585 276.269 209.786 278.477 208.966 280.741L208.95 280.785C208.112 280.393 206.659 279.825 205.277 279.281L205.279 279.282L205.273 279.28L205.268 279.278L205.266 279.277C205.206 279.254 205.141 279.247 205.078 279.259C205.014 279.271 204.956 279.299 204.908 279.342C204.86 279.385 204.825 279.441 204.807 279.502C204.789 279.564 204.788 279.63 204.805 279.692L205.06 280.62C204.98 280.619 204.896 280.618 204.826 280.617ZM205.658 280.177C206.254 280.412 206.849 280.649 207.442 280.891C206.896 280.803 206.347 280.733 205.796 280.681L205.658 280.177ZM205.993 281.396C206.619 281.468 207.244 281.555 207.866 281.658C208.126 281.701 208.367 281.739 208.59 281.772C208.135 283.019 207.658 284.276 207.131 285.535L205.993 281.396ZM206.582 288.447C207.675 286.236 208.513 284.012 209.3 281.849C209.33 281.848 209.36 281.848 209.392 281.844C209.422 281.841 209.535 281.829 209.632 281.75L209.752 281.496L209.635 281.747C209.678 281.712 209.717 281.663 209.742 281.599C209.757 281.559 209.753 281.526 209.755 281.49L209.759 281.482V281.482L209.755 281.49C209.769 281.275 209.591 281.133 209.606 281.145C209.597 281.138 209.577 281.127 209.566 281.119L209.618 280.978C210.439 278.708 211.227 276.535 212.213 274.542L212.316 274.335C214.46 270.089 217.452 266.864 219.001 266.683C219.044 266.678 219.088 266.676 219.128 266.676C219.796 266.676 220.333 267.46 220.333 269.063C220.333 269.945 220.159 270.974 219.797 272.007C219.338 273.319 218.581 274.631 217.881 275.841C217.323 276.806 216.79 277.725 216.524 278.484C216.392 278.862 216.312 279.234 216.347 279.576C216.461 280.71 217.689 281.071 218.84 281.071C219.83 281.071 220.982 280.821 221.997 280.374C223.348 279.779 224.451 278.834 225.806 277.678C226.739 276.881 227.8 275.976 229.171 274.977C232.572 272.496 237.782 269.505 240.592 269.069C240.839 269.03 241.064 269.013 241.269 269.013C242.391 269.013 242.82 269.525 242.82 270.207C242.82 270.817 242.481 271.654 241.71 272.575C240.621 273.876 238.741 275.263 236.661 276.676C235.844 276.772 235.02 276.939 234.207 277.235C230.225 278.68 226.632 282.914 226.097 283.909L226.097 283.908C226.066 283.964 226.04 284.022 226.019 284.082C226.002 284.135 225.992 284.189 225.991 284.245C225.991 284.466 226.162 284.634 226.38 284.634C226.447 284.634 226.505 284.618 226.543 284.605C226.696 284.554 226.903 284.421 227.12 284.27C227.478 284.02 227.968 283.645 228.57 283.184C229.532 282.449 230.752 281.514 232.145 280.542C233.042 279.916 234.016 279.271 234.99 278.626C235.62 278.21 236.249 277.791 236.875 277.369C237.356 277.318 237.839 277.268 238.317 277.268C239.822 277.268 241.278 277.484 242.56 277.675C243.406 277.802 244.19 277.919 244.851 277.948C244.969 277.953 245.072 277.956 245.183 277.956C246.267 277.956 246.984 277.714 247.518 277.533C247.869 277.414 248.085 277.345 248.284 277.345C248.412 277.345 248.541 277.376 248.697 277.471C249.377 277.887 250.123 279.132 249.565 280.045C249.379 280.35 249.031 280.661 248.42 280.919C247.974 281.108 247.377 281.257 246.715 281.392C245.654 280.956 244.519 280.731 243.373 280.73C242.207 280.73 240.961 280.963 239.695 281.527C239.649 281.547 239.624 281.558 239.577 281.58C238.782 281.946 237.983 282.446 237.202 283.003C236.451 283.201 235.727 283.425 235.071 283.702L234.958 283.751C231.655 285.189 229.772 287.938 229.962 288.898C229.971 288.941 229.984 288.984 230.002 289.026L230.002 289.027C230.092 289.233 230.281 289.344 230.495 289.344C230.511 289.344 230.533 289.343 230.549 289.341C230.66 289.33 230.768 289.299 230.869 289.25C231.388 289.011 232.26 288.191 233.267 287.252C234.483 286.119 235.98 284.754 237.534 283.636C239.354 283.17 241.385 282.885 243.297 282.63C244.491 282.47 245.627 282.313 246.627 282.119C247.464 282.487 248.177 282.957 248.686 283.452C249.793 284.529 249.934 285.58 248.983 286.557C248.566 286.986 247.925 287.415 247.015 287.821C245.559 288.47 243.47 289.038 241.269 289.634C240.877 289.741 240.48 289.85 240.085 289.959C239.297 289.775 238.515 289.65 237.776 289.65C237.364 289.65 236.964 289.683 236.579 289.755C234.422 290.16 232.918 291.768 231.941 293.153C231.765 293.404 231.597 293.66 231.437 293.921C230.716 294.663 230.362 295.315 230.31 295.606V295.607C230.304 295.643 230.282 295.766 230.342 295.889C230.373 295.951 230.42 296.003 230.478 296.039C230.536 296.076 230.604 296.095 230.673 296.095C230.835 296.095 230.945 295.989 230.97 295.966L230.969 295.967C231.023 295.917 231.076 295.851 231.125 295.782L231.124 295.782C231.225 295.64 231.353 295.417 231.498 295.167C231.633 294.933 231.796 294.656 231.98 294.358C232.52 293.81 233.301 293.184 234.43 292.62C234.599 292.536 234.769 292.456 234.941 292.38C236.377 291.739 238.216 291.194 240.107 290.672C242.846 291.354 245.679 292.988 246.904 294.189C247.75 295.02 247.642 295.421 247.413 295.654C247.021 296.053 246.001 296.344 244.467 296.461C243.79 296.512 243.048 296.528 242.222 296.546C241.266 296.568 240.204 296.591 239.091 296.676C237.116 296.826 234.935 297.169 232.68 298.042C230.759 298.786 228.788 299.914 226.901 300.995C225.093 302.03 223.36 303.021 221.761 303.64C221.021 303.926 220.32 304.129 219.662 304.22C219.36 304.262 219.063 304.28 218.775 304.28C217.405 304.28 216.219 303.862 215.304 303.537C214.8 303.358 214.304 303.177 213.941 303.177C213.824 303.177 213.698 303.194 213.578 303.25C213.47 303.3 213.378 303.378 213.311 303.475C213.196 303.643 213.161 303.85 213.161 304.055C213.161 304.146 213.168 304.24 213.18 304.344C213.225 304.715 213.362 305.24 213.559 305.852C213.527 305.798 213.486 305.753 213.455 305.696C212.356 303.717 212.018 300.801 211.694 297.953C211.364 295.054 211.049 292.129 209.762 290.711C209.093 289.974 208.187 289.654 207.179 289.654C206.759 289.654 206.313 289.723 205.857 289.828C206.104 289.369 206.352 288.911 206.582 288.447ZM235.097 277.723L234.607 278.048C233.637 278.69 232.652 279.342 231.748 279.973C230.343 280.954 229.109 281.898 228.149 282.633C227.942 282.792 227.771 282.921 227.594 283.055C228.952 281.467 231.609 278.915 234.444 277.886C234.659 277.808 234.88 277.784 235.097 277.723ZM245.226 281.656C244.589 281.753 243.923 281.847 243.206 281.943C241.947 282.111 240.604 282.296 239.289 282.54C239.482 282.436 239.676 282.298 239.868 282.209L239.977 282.16C241.152 281.637 242.301 281.423 243.373 281.423C244.027 281.423 244.641 281.518 245.226 281.656ZM235.575 284.261C234.552 285.112 233.599 285.996 232.796 286.745C231.8 287.673 231.084 288.328 230.676 288.559C230.878 287.828 232.284 285.671 235.236 284.386C235.281 284.366 235.296 284.36 235.342 284.341C235.414 284.31 235.501 284.291 235.575 284.261ZM234.121 292C233.906 292.107 233.717 292.221 233.522 292.334C234.363 291.447 235.405 290.681 236.708 290.436C237.06 290.372 237.418 290.341 237.776 290.343C238.018 290.343 238.274 290.379 238.525 290.403C237.122 290.813 235.775 291.248 234.66 291.746C234.476 291.828 234.293 291.914 234.121 292ZM100.286 310.163C99.2276 306.314 98.5763 302.581 98.503 299.021C98.1523 281.989 111.01 268.787 123.252 268.535C123.371 268.533 123.49 268.531 123.608 268.531C125.802 268.531 127.972 268.95 130.043 269.839C140.587 274.364 148.65 291.076 154.891 304.053C156.817 308.056 158.568 311.697 160.157 314.471C164.314 321.73 167.387 323.096 169.795 324.15C169.84 324.17 169.878 324.189 169.922 324.208C167.729 327.149 168.527 330.282 170.333 335.156C172.105 339.936 175.163 347.394 176.783 347.394C176.799 347.394 176.814 347.394 176.829 347.393C176.923 347.387 177.013 347.362 177.098 347.318C177.315 347.205 177.45 346.992 177.537 346.765C178.498 344.288 176.731 331.22 173.951 326.58C173.091 325.146 172.123 324.484 171.051 323.961C171.259 323.735 171.446 323.509 171.697 323.283C173.197 321.93 175.468 320.545 177.988 319.009C180.984 317.184 184.308 315.16 186.952 312.775C187.274 312.485 187.588 312.186 187.893 311.879C190.667 309.089 192.416 305.823 194.083 302.713C195.327 300.391 196.527 298.155 198.077 296.216C199.934 293.894 202.265 292.043 204.384 291.079C204.22 291.372 204.057 291.668 203.893 291.958C201.98 295.342 200.069 298.667 200.75 301.143C200.799 301.32 200.86 301.49 200.933 301.657C201.514 302.99 202.843 304.051 204.223 305.165C206.038 306.629 208.037 308.249 209.152 310.806C209.236 310.999 209.313 311.193 209.388 311.396C210.339 313.987 210.542 317.38 210.735 320.647C210.904 323.519 211.066 326.313 211.773 328.24C212.68 330.712 214.489 331.787 216.388 331.787C216.74 331.786 217.091 331.75 217.436 331.679C215.675 333.423 213.608 335.192 211.363 337.11C210.463 337.879 209.518 338.687 208.573 339.51C207.805 340.182 207.038 340.857 206.274 341.534C205.424 342.286 204.671 342.953 203.782 343.728C200.027 347 195.825 350.437 190.686 353.553C190.652 353.553 190.625 353.543 190.59 353.543C190.131 353.543 189.641 353.585 189.121 353.66C186.139 354.095 182.098 355.688 177.889 357.345C174.34 358.742 170.663 360.187 167.327 361.077C163.963 360.974 160.684 360.209 157.668 358.447C153.334 355.915 149.515 351.38 145.695 346.468C145.153 345.093 144.622 343.713 144.104 342.329C141.172 334.508 137.945 325.856 131.785 322.017C128.563 320.009 124.573 319.334 120.957 319.334C115.816 319.334 110.908 320.731 110.569 321.966L110.569 321.968C110.565 321.983 110.568 321.97 110.563 321.989V321.99C110.529 322.133 110.545 322.283 110.608 322.415C110.67 322.546 110.77 322.65 110.873 322.732C111.416 323.159 112.797 323.492 114.523 323.92C118.694 324.955 125.593 326.668 131.511 331.338C135.767 334.696 139.527 339.589 143.283 344.48C143.885 345.263 144.487 346.044 145.09 346.821C145.403 347.612 145.716 348.407 146.038 349.155C149.557 357.324 153.84 362.659 161.481 362.659C162.337 362.659 163.235 362.592 164.174 362.455C165.202 362.305 166.283 362.07 167.399 361.775C167.629 361.781 167.856 361.813 168.086 361.813C174.979 361.813 182.103 359.083 188.004 355.899C188.99 355.368 189.932 354.82 190.854 354.265C191.168 354.279 191.478 354.295 191.738 354.358C195.118 355.174 194.595 360.503 193.822 367.304C193.547 369.729 193.257 372.281 193.176 374.714C193.065 378.075 193.35 381.21 193.583 383.764C193.744 385.537 193.876 387.005 193.841 388.079C193.795 389.458 193.491 389.813 193.074 389.813C192.954 389.813 192.803 389.788 192.614 389.726C191.555 389.377 189.793 388.043 187.429 386.246C183.302 383.108 177.522 378.71 171.162 376.613C170.712 376.464 170.257 376.327 169.8 376.202C165.68 375.08 161.368 375.006 157.291 375.006C156.964 375.006 156.638 375.006 156.314 375.006L155.356 375.007C149.713 375.007 144.732 374.844 141.293 372.013C137.501 368.891 135.516 362.483 133.511 355.966C132.183 351.65 130.847 347.305 128.952 344.003C126.197 339.2 122.271 336.616 118.24 333.957C115.314 332.026 112.329 330.055 109.619 327.165C106.361 323.689 103.492 318.869 101.322 313.585C100.949 312.453 100.604 311.312 100.286 310.163ZM176.78 346.7C175.793 346.689 172.919 340.139 170.983 334.915C169.154 329.979 168.488 327.161 170.559 324.499C171.646 325.01 172.546 325.585 173.356 326.936C176.069 331.464 177.748 344.303 176.891 346.514C176.831 346.668 176.784 346.698 176.78 346.7ZM189.361 354.335C188.805 354.655 188.253 354.977 187.675 355.288C182.34 358.166 176.057 360.613 169.897 361.033C172.604 360.163 175.427 359.058 178.142 357.989C182.386 356.319 186.337 354.766 189.221 354.346C189.271 354.339 189.311 354.342 189.361 354.335ZM164.993 361.601C164.685 361.659 164.372 361.724 164.074 361.768C163.165 361.9 162.301 361.965 161.481 361.965C154.288 361.965 150.174 357.002 146.675 348.88C146.662 348.85 146.65 348.818 146.638 348.788C149.987 352.976 153.442 356.781 157.318 359.045C159.748 360.465 162.338 361.26 164.993 361.601ZM111.238 322.149V322.149C111.239 322.146 111.238 322.147 111.238 322.149ZM144.198 344.53C144.076 344.372 143.955 344.215 143.833 344.057C140.091 339.184 136.277 334.215 131.94 330.793C125.892 326.021 118.856 324.28 114.689 323.247C112.853 322.792 111.693 322.494 111.303 322.187C111.261 322.154 111.257 322.144 111.251 322.134C111.473 321.511 115.6 320.027 120.957 320.027C124.501 320.027 128.348 320.692 131.418 322.605C137.335 326.292 140.492 334.668 143.455 342.572C143.704 343.234 143.95 343.878 144.198 344.53Z" fill="black"/>
<path d="M443.611 247.03C438.115 242.348 431.546 239.873 425.603 238.989C427.841 236.564 427.374 235.026 426.487 232.596C426.302 232.09 426.114 231.577 425.924 230.977C425.589 229.921 425.272 228.663 424.943 227.362C424.593 225.973 424.231 224.534 423.814 223.221C423.162 221.166 422.349 219.317 421.158 218.605C420.772 218.374 420.352 218.266 419.905 218.266C418.728 218.266 417.314 219.053 415.653 220.304C415.904 219.219 416.149 218.133 416.389 217.045C417 214.286 417.571 211.707 418.325 209.216C418.905 207.299 419.589 205.445 420.271 203.594C420.932 201.804 421.582 200.044 422.116 198.277C423.242 194.559 423.846 190.841 422.857 186.968C420.926 179.405 412.942 171.368 404.577 167.668C400.694 165.951 396.72 165.163 393.069 165.163C388.835 165.163 385.02 166.224 382.29 168.146C380.146 169.655 378.691 171.685 377.282 173.646C375.891 175.581 374.548 177.446 372.622 178.802C371.822 179.367 370.948 179.817 370.025 180.141C367.485 181.038 364.062 181.213 360.691 181.213C359.627 181.213 358.571 181.196 357.554 181.179C356.604 181.163 355.718 181.149 354.86 181.149C352.675 181.149 350.801 181.244 349.775 181.739C348.729 182.242 348.545 183.154 349.014 184.128C350.053 186.283 354.396 189.113 360.111 190.576C362.274 191.555 364.758 192.368 367.254 192.811C369.268 193.169 371.285 193.286 373.293 193.286C374.538 193.286 375.775 193.236 377.008 193.175C376.414 193.413 375.829 193.665 375.289 193.963C368.073 197.94 366.489 207.053 366.745 215.081C367.002 223.132 369.115 230.315 372.405 234.22C373.237 235.206 374.148 235.986 375.163 236.523C374.626 236.354 374.052 236.239 373.402 236.239C372.914 236.241 372.428 236.289 371.949 236.383C371.791 236.413 371.627 236.449 371.464 236.488C366.925 237.588 359.516 242.605 360.028 244.72C360.159 245.26 360.713 245.523 361.311 245.669C362.424 245.942 364.244 245.942 366.251 245.944C368.981 245.946 372.125 245.95 374.663 246.572C377.625 247.299 379.777 248.873 381.56 250.18C381.732 250.306 381.895 250.421 382.062 250.543C380.578 251.624 378.596 253.237 376.475 256.157C372.639 261.438 368.393 270.965 365.788 279.727C365.296 280.279 364.727 281.523 364.016 283.464C361.916 289.2 358.306 301.875 355.829 312.145C353.34 307.283 347.039 304.595 342.116 304.595C340.526 304.595 339.074 304.904 337.903 305.502L336.347 298.944C336.337 298.904 336.32 298.866 336.295 298.833C336.271 298.8 336.24 298.772 336.204 298.751C336.168 298.73 336.129 298.717 336.088 298.712C336.047 298.707 336.006 298.71 335.966 298.722L306.865 307.093C306.826 307.104 306.79 307.122 306.759 307.147C306.728 307.172 306.702 307.203 306.682 307.238C306.663 307.273 306.651 307.311 306.646 307.351C306.642 307.391 306.645 307.431 306.656 307.469C306.667 307.508 306.686 307.544 306.711 307.575C306.736 307.606 306.767 307.632 306.801 307.651C306.836 307.671 306.875 307.683 306.915 307.688C306.954 307.692 306.995 307.689 307.033 307.678L335.828 299.395L337.346 305.791C336.971 306.038 336.629 306.316 336.348 306.645C332.655 310.965 338.357 322.126 343.776 332.85C343.811 332.915 343.867 332.966 343.936 332.993C344.005 333.02 344.082 333.02 344.151 332.995C344.221 332.97 344.279 332.92 344.314 332.855C344.35 332.79 344.36 332.714 344.344 332.642L338.046 306.102C339.113 305.52 340.508 305.205 342.117 305.205C347.088 305.205 353.455 308.016 355.587 312.951C355.599 312.978 355.606 313.008 355.618 313.036C354.31 318.532 353.352 323.254 353.186 325.662C353.108 326.785 353.179 327.596 353.54 327.9C353.63 327.975 353.738 328.022 353.857 328.03H353.858C353.903 328.033 353.949 328.03 353.993 328.023H353.993C355.216 327.815 357.12 322.727 357.12 317.992C357.12 316.284 356.867 314.56 356.251 313.003C358.721 302.655 362.441 289.54 364.589 283.674C364.722 283.31 364.846 282.985 364.965 282.683C362.73 291.321 362.215 298.917 361.782 306.121C361.419 312.146 361.073 318.136 361.41 318.9V318.9C361.43 318.944 361.516 319.13 361.732 319.144L361.753 319.145C361.932 319.145 362.035 319.014 362.066 318.972C362.158 318.847 362.236 318.635 362.312 318.381C363.105 315.739 365.069 303.291 366.267 293.018C367.037 286.421 367.569 280.314 366.705 279.521C366.656 279.476 366.582 279.456 366.513 279.431C369.117 270.843 373.254 261.63 376.968 256.516C379.113 253.564 381.108 251.981 382.582 250.918C383.619 251.642 384.587 252.191 385.544 252.191C385.565 252.191 385.592 252.191 385.613 252.191L385.643 252.189H385.643C386.503 252.155 387.3 251.655 388.005 250.892C387.609 251.968 387.263 253.061 386.966 254.169C385.017 255.919 382.392 259.94 380.42 262.999L379.928 263.763L379.488 264.446L379.487 264.448L379.482 264.456L379.483 264.454L379.274 264.778C376.805 268.605 375.772 270.218 373.413 279.756C372.236 284.514 370.724 291.267 369.216 297.998C367.628 305.089 366.031 312.219 364.84 316.957C364.318 319.034 363.861 320.702 363.503 322.006C362.265 326.517 362.02 327.374 363.423 329.709C364.902 332.169 368.477 336.792 371.074 336.792C371.454 336.792 371.817 336.696 372.148 336.481C374.573 334.904 374.938 326.685 375.301 318.743L375.316 318.43L375.33 318.117C375.709 309.834 376.115 301.614 380.763 289.414C383.464 282.324 387.597 273.898 391.934 266.221C392.846 267.837 393.989 268.827 394.963 268.827C395.353 268.827 395.703 268.669 395.966 268.352C396.327 267.92 396.521 267.183 396.752 266.332C397.249 264.506 398.009 261.717 400.744 258.438C401.155 257.946 401.585 257.471 402.033 257.013C405.441 253.526 411.17 249.594 416.206 246.139C419.203 244.084 421.947 242.202 423.794 240.687C424.241 240.322 424.672 239.938 425.088 239.538C431.04 240.349 437.684 242.781 443.216 247.493C450.464 253.668 455.807 263.731 456.429 277.631C456.58 281.007 456.453 284.603 456.15 288.42C455.707 293.997 454.89 300.013 454.018 306.43C453.027 313.719 451.967 321.516 451.315 329.73C450.686 337.646 450.435 345.962 450.197 353.88C449.821 366.358 449.473 377.864 447.733 385.477C445.861 393.666 442.427 397.189 438.339 397.189C436.168 397.189 433.742 396.205 431.17 394.286C429.047 392.703 426.844 390.5 424.437 388.093C418.372 382.026 411.065 374.701 400.862 373.449C399.73 373.31 398.559 373.246 397.368 373.246C396.514 373.246 395.653 373.278 394.777 373.34C387.097 373.878 378.624 376.632 371.539 378.933C366.374 380.61 361.978 382.035 359.11 382.236C358.873 382.253 358.639 382.261 358.425 382.261C356.767 382.261 355.779 381.79 355.247 381.099C353.511 378.847 356.142 373.505 359.892 370.615C361.673 369.242 363.651 368.49 365.571 368.068C367.628 367.615 369.607 367.542 371.199 367.484C372.231 367.446 373.13 367.414 373.756 367.277C374.555 367.1 374.946 366.728 375.076 366.181C375.766 366.564 376.449 366.92 377.108 367.193C378.086 367.598 379.039 367.859 379.924 367.859C380.574 367.859 381.174 367.695 381.719 367.375C383.161 368.147 385.232 368.34 387.808 368.34C389.083 368.34 390.502 368.295 392.05 368.246C393.939 368.186 396.019 368.12 398.301 368.12C399.284 368.12 400.318 368.133 401.372 368.163C402.976 368.21 404.667 368.298 406.41 368.389C408.27 368.486 410.17 368.586 412.115 368.643C413.082 368.671 414.056 368.687 415.031 368.687C423.447 368.687 432.037 367.427 437.72 360.99C445.324 352.378 447.632 334.545 449.534 319.927C449.843 317.557 450.144 315.244 450.452 313.089C451.311 307.071 452.252 302.062 453.064 297.741C453.683 294.445 454.23 291.534 454.611 288.858C455.018 286.011 455.24 283.419 455.162 280.906C454.915 272.918 451.648 265.721 443.937 261.116C440.673 259.167 436.597 257.673 432.527 257.673C426.984 257.673 421.504 260.446 418.146 268.447C412.352 282.257 412.833 311.779 418.639 328.381C419.38 330.503 420.281 332.565 421.336 334.55C421.068 334.296 420.81 334.059 420.555 333.854C419.676 333.148 418.805 332.765 417.438 332.765C417.09 332.765 416.711 332.79 416.294 332.839C413.887 333.124 410.075 334.246 405.984 335.45C403.159 336.281 400.179 337.157 397.409 337.836C390.611 339.502 385.011 339.999 381.581 340.003H381.54C381.168 340.003 380.799 339.997 380.475 339.992C380.201 339.987 379.962 339.984 379.718 339.983C377.879 338.218 375.638 337.58 373.469 337.48C372.662 337.204 371.849 336.997 371.053 336.926C370.759 336.9 370.465 336.887 370.171 336.887C367.446 336.887 364.977 337.994 364.628 338.648C364.59 338.717 364.569 338.795 364.568 338.875C364.568 339.102 364.735 339.225 364.871 339.273C364.969 339.308 365.081 339.319 365.192 339.319C365.318 339.319 365.468 339.305 365.638 339.277C365.984 339.22 366.455 339.102 366.996 338.967C368.474 338.596 370.597 338.064 372.825 338.064C373.003 338.064 373.183 338.077 373.363 338.084C374.799 338.589 376.108 339.4 377.197 340.462C376.452 340.904 375.88 341.735 375.351 343.316C374.137 346.946 373.012 354.665 373.413 359.574C373.559 361.369 373.909 362.786 374.178 363.873C374.301 364.375 374.389 364.77 374.45 365.123C373.689 364.668 372.935 364.202 372.187 363.726C370.52 362.671 368.855 361.617 367.386 361.008C366.111 360.48 364.978 360.283 363.946 360.283C363.741 360.283 363.551 360.308 363.354 360.322C364.377 359.611 365.01 358.348 365.121 356.138C365.333 351.913 363.657 344.1 362.17 341.131C361.424 339.641 360.672 339.272 359.774 339.272C359.525 339.272 359.274 339.3 359.026 339.326C358.749 339.356 358.465 339.385 358.172 339.385C357.804 339.385 357.411 339.34 356.978 339.189C356.389 338.985 355.718 338.588 354.876 338.087C353.659 337.363 352.141 336.459 350.161 335.772C348.496 335.194 346.512 334.772 344.107 334.732C343.964 334.73 343.867 334.729 343.722 334.729C336.541 334.729 325.881 337.961 321.905 340.709C320.189 341.896 319.507 343.166 320.244 344.232C320.978 345.294 323.025 345.862 325.745 345.862C326.236 345.862 326.744 345.844 327.284 345.806C328.319 345.733 329.449 345.583 330.616 345.385C329.556 346.316 328.71 347.267 328.506 348.071C328.167 349.404 329.41 350.211 330.637 350.522C331.105 350.64 331.607 350.701 332.101 350.701C332.638 350.701 333.175 350.628 333.644 350.471C334.467 350.196 335.057 349.671 335.645 349.152C336.357 348.524 337.103 347.869 338.346 347.453C338.749 347.32 339.162 347.221 339.582 347.156C339.79 347.124 340.032 347.109 340.26 347.087C337.777 348.621 335.649 350.658 334.812 352.125C334.199 353.2 334.197 354.157 335.113 354.68C335.59 354.952 336.274 355.072 337.117 355.072C337.994 355.072 339.077 354.942 340.357 354.681C342.795 354.184 345.969 353.207 348.344 352.475C348.862 352.316 349.319 352.176 349.742 352.048C348.503 352.67 346.77 353.5 345.078 354.306C343.294 355.157 341.615 355.958 340.821 356.38C340.543 356.528 340.327 356.653 340.221 356.755C340.213 356.763 340.007 356.947 340.132 357.184L340.132 357.184C340.217 357.344 340.39 357.366 340.413 357.37C340.466 357.379 340.519 357.381 340.571 357.381C340.739 357.381 340.999 357.355 341.302 357.325C341.872 357.27 342.665 357.193 343.565 357.193C344.499 357.193 345.539 357.276 346.548 357.549C348.221 358.002 349.838 358.981 351.426 359.954C350.038 359.785 348.625 359.604 347.192 359.415L347.111 359.415L296.25 366.446L275.363 314.585C275.332 314.512 275.273 314.454 275.199 314.424C275.126 314.394 275.043 314.393 274.969 314.423C274.896 314.453 274.836 314.51 274.804 314.583C274.772 314.656 274.77 314.738 274.798 314.813L295.774 366.894C295.799 366.957 295.845 367.01 295.904 367.044C295.963 367.078 296.031 367.091 296.098 367.082L347.153 360.024C349.029 360.272 350.894 360.512 352.688 360.716C353.74 361.336 354.778 361.883 355.784 362.156C356.101 362.241 356.421 362.302 356.737 362.328C356.871 362.339 356.996 362.344 357.128 362.344C358.169 362.344 359.167 362.009 360.173 361.675C361.337 361.288 362.535 360.891 363.946 360.891C364.896 360.891 365.95 361.071 367.153 361.57C368.564 362.155 370.179 363.175 371.862 364.239C372.736 364.792 373.628 365.357 374.512 365.87C374.477 366.298 374.261 366.541 373.624 366.681C373.065 366.804 372.234 366.836 371.176 366.875C369.588 366.933 367.557 367.006 365.44 367.473C363.459 367.909 361.389 368.691 359.519 370.132C355.817 372.986 352.646 378.721 354.764 381.471C355.455 382.366 356.661 382.87 358.424 382.87C358.655 382.87 358.901 382.861 359.152 382.843C362.114 382.635 366.599 381.177 371.727 379.511C378.829 377.204 387.229 374.479 394.819 373.946C395.681 373.886 396.531 373.854 397.368 373.854C398.537 373.854 399.683 373.917 400.788 374.053C410.749 375.276 417.914 382.429 424.006 388.523C426.403 390.92 428.64 393.159 430.805 394.773C433.435 396.735 435.986 397.798 438.338 397.798C442.89 397.798 446.442 393.854 448.326 385.613C450.083 377.927 450.43 366.349 450.805 353.898C451.044 345.981 451.294 337.673 451.922 329.778C452.572 321.588 453.63 313.799 454.621 306.512C455.493 300.096 456.312 294.069 456.757 288.468C457.061 284.637 457.19 281.012 457.037 277.604C456.408 263.556 451.002 253.326 443.611 247.03ZM343.153 330.26C338.049 320.095 333.695 310.685 336.811 307.04C337.002 306.816 337.254 306.634 337.503 306.451L343.153 330.26ZM356.512 317.992C356.512 322.86 354.568 327.205 353.916 327.402C353.837 327.295 353.714 326.856 353.794 325.703C353.948 323.46 354.804 319.16 355.994 314.087C356.357 315.323 356.512 316.655 356.512 317.992ZM365.662 292.946C364.532 302.636 362.73 314.181 361.876 317.65C361.842 315.654 362.095 311.056 362.39 306.157C362.846 298.584 363.364 290.653 365.888 281.523C366.023 281.033 366.186 280.53 366.333 280.034C366.832 280.789 366.447 286.218 365.662 292.946ZM419.905 218.875C420.249 218.875 420.56 218.956 420.846 219.128C421.808 219.703 422.569 221.311 423.234 223.405C423.644 224.697 424.002 226.117 424.353 227.511C424.681 228.811 425.001 230.08 425.344 231.161C425.538 231.774 425.731 232.301 425.915 232.805C426.776 235.163 427.277 236.482 424.868 238.897C423.411 238.711 421.983 238.592 420.639 238.592C420.337 238.592 420.056 238.596 419.761 238.605C414.764 238.752 410.854 240.164 406.61 244.208C407.89 241.852 409.065 239.507 410.069 237.285C412.833 231.166 414.321 225.932 415.437 221.238C417.306 219.757 418.764 218.875 419.905 218.875ZM360.316 190.002C358.189 189.035 356.397 187.91 355.258 186.84C353.938 185.602 353.7 184.666 354.243 184.087C355.152 183.118 358.257 182.643 362.289 182.643C366.58 182.643 371.709 183.174 375.736 184.01C380.851 185.073 384.011 186.596 384.607 187.865C384.851 188.383 384.675 188.977 383.404 189.574C381.296 190.565 376.681 191.253 371.546 191.253C367.828 191.253 363.869 190.892 360.447 190.04C360.402 190.029 360.361 190.014 360.316 190.002ZM372.871 233.828C369.708 230.074 367.609 223.051 367.354 215.062C367.098 207.05 368.703 198.288 375.584 194.496C376.71 193.875 377.991 193.403 379.328 193.054C381.153 192.949 382.951 192.849 384.719 192.849C386.155 192.849 387.558 192.95 388.941 193.131C392.058 194.143 394.288 196.251 394.288 199.621C394.288 199.74 394.285 199.884 394.279 200.007C393.966 206.551 385.824 217.615 380.406 224.961C378.918 226.979 377.632 228.725 376.803 229.981C375.686 231.677 375.107 232.873 375.815 233.339C375.992 233.456 376.21 233.487 376.416 233.487C376.945 233.487 377.721 233.272 378.551 233.044C379.769 232.711 381.195 232.322 382.517 232.322C382.728 232.322 382.937 232.332 383.139 232.354C384.343 232.482 385.409 233.067 386.341 233.905C383.227 235.874 380.695 236.753 378.598 236.753C376.296 236.754 374.459 235.712 372.871 233.828ZM386.906 233.544C385.864 232.561 384.623 231.9 383.203 231.749C382.975 231.725 382.746 231.713 382.517 231.714C381.098 231.714 379.593 232.128 378.39 232.457C377.518 232.696 376.842 232.878 376.416 232.878C376.256 232.878 376.18 232.851 376.151 232.831C376.079 232.784 375.966 232.358 377.311 230.317C378.13 229.075 379.403 227.349 380.896 225.323C386.246 218.068 394.562 206.815 394.887 200.037C394.893 199.9 394.897 199.754 394.897 199.621C394.897 196.861 393.561 194.899 391.542 193.629C398.063 195.27 403.864 199.644 407.453 202.652C411.202 205.793 412.408 207.182 408.241 212.844C403.979 218.635 394.179 228.672 387.128 233.402C387.052 233.453 386.981 233.495 386.906 233.544ZM381.921 249.689C380.141 248.385 377.902 246.74 374.809 245.981C372.185 245.338 368.963 245.337 366.253 245.335C364.206 245.334 362.48 245.33 361.456 245.079C360.864 244.933 360.66 244.742 360.62 244.577C360.273 243.141 366.859 238.231 371.607 237.081C371.759 237.044 371.911 237.011 372.064 236.982C372.544 236.89 372.989 236.848 373.403 236.848C376.31 236.848 377.839 238.926 379.464 241.168C379.739 241.545 380.011 241.921 380.295 242.292C380.923 243.111 381.588 243.878 382.195 244.576C382.721 245.181 383.205 245.739 383.596 246.25C384.357 247.243 384.669 247.94 384.503 248.443C384.354 248.896 383.813 249.297 382.797 250.016C382.731 250.063 382.655 250.118 382.585 250.167C382.367 250.011 382.157 249.862 381.921 249.689ZM385.619 251.58H385.618L385.596 251.581C385.578 251.581 385.561 251.581 385.543 251.581C384.817 251.581 384.043 251.169 383.114 250.537L383.149 250.512C384.079 249.853 384.853 249.324 385.081 248.633C385.362 247.783 384.807 246.828 384.079 245.879C383.676 245.352 383.175 244.775 382.655 244.176C382.047 243.476 381.393 242.722 380.778 241.92C380.498 241.556 380.233 241.189 379.957 240.809C378.835 239.263 377.648 237.644 375.911 236.812C376.742 237.14 377.62 237.362 378.598 237.362C380.889 237.362 383.578 236.393 386.803 234.332C388.668 236.305 389.831 239.455 389.954 242.548C390.145 247.374 387.839 251.492 385.619 251.58ZM387.341 233.988C387.384 233.96 387.424 233.936 387.467 233.908C394.587 229.131 404.436 219.042 408.731 213.205C413.122 207.239 411.794 205.495 407.844 202.185C403.993 198.958 397.508 194.025 390.245 192.684C389.902 192.621 389.552 192.6 389.207 192.552C387.669 192.045 385.947 191.801 384.203 191.801C382.54 191.801 380.844 192.032 379.226 192.449L379.1 192.456C377.172 192.567 375.235 192.677 373.293 192.677C371.309 192.677 369.329 192.562 367.361 192.212C366.093 191.987 364.832 191.663 363.616 191.273C366.211 191.673 368.937 191.863 371.546 191.863C376.696 191.863 381.427 191.177 383.663 190.126C385.005 189.496 385.634 188.619 385.159 187.607C384.409 186.013 380.891 184.459 375.86 183.414C371.791 182.569 366.621 182.035 362.289 182.035C358.355 182.035 354.927 182.469 353.8 183.67C352.826 184.707 353.566 186.088 354.841 187.285C355.442 187.849 356.21 188.422 357.102 188.98C353.098 187.463 350.296 185.385 349.563 183.864C349.212 183.135 349.352 182.619 350.039 182.288C350.914 181.866 352.633 181.758 354.86 181.758C355.711 181.758 356.594 181.773 357.544 181.789C358.561 181.805 359.621 181.823 360.691 181.823C364.06 181.823 367.579 181.652 370.228 180.716C371.204 180.373 372.127 179.897 372.973 179.301C374.996 177.876 376.396 175.923 377.777 174.001C379.194 172.029 380.593 170.086 382.641 168.644C385.245 166.811 388.928 165.772 393.07 165.772C396.634 165.772 400.525 166.542 404.331 168.226C412.581 171.874 420.395 179.788 422.268 187.119C423.217 190.836 422.646 194.428 421.534 198.101C421.006 199.846 420.362 201.592 419.701 203.384C419.02 205.229 418.328 207.104 417.742 209.039C416.981 211.556 416.405 214.159 415.796 216.913C415.512 218.196 415.216 219.522 414.894 220.885C413.696 221.842 412.375 223.007 410.919 224.285C410.177 224.937 409.357 225.657 408.531 226.37C407.939 226.88 407.345 227.39 406.75 227.897C406.103 228.45 405.45 229.008 404.775 229.591C399.688 233.985 393.972 239.311 390.285 245.95C390.503 244.854 390.608 243.692 390.562 242.524C390.44 239.436 389.296 236.122 387.341 233.988ZM390.061 247.615C393.625 240.431 399.731 234.753 405.173 230.053C405.841 229.476 406.506 228.908 407.146 228.361C407.722 227.869 408.388 227.299 408.93 226.832C409.767 226.108 410.57 225.403 411.321 224.744C412.556 223.659 413.653 222.703 414.654 221.876C413.563 226.349 412.105 231.298 409.514 237.035C408.23 239.876 406.673 242.896 404.988 245.872C403.626 247.351 402.217 249.09 400.711 251.163C398.402 254.342 395.866 258.283 393.338 262.57C392.759 263.18 392.202 263.723 391.679 264.175C391.579 263.887 391.48 263.597 391.395 263.28C391.017 261.873 390.816 260.21 390.626 258.639C390.327 256.153 390.062 253.283 388.59 253.283C388.528 253.283 388.464 253.289 388.401 253.299C388.203 253.331 387.983 253.432 387.751 253.572C388.322 251.602 389.092 249.569 390.061 247.615ZM403.271 248.814C400.759 252.989 398.083 256.901 395.633 259.93C397.553 256.807 399.445 253.941 401.204 251.52C401.871 250.602 402.56 249.699 403.271 248.814ZM392.209 264.503C392.13 264.642 392.051 264.783 391.971 264.922C391.95 264.873 391.929 264.825 391.908 264.774C392.006 264.692 392.11 264.591 392.209 264.503ZM387.5 254.505C387.877 254.186 388.226 253.944 388.499 253.9C388.529 253.895 388.56 253.892 388.59 253.892C389.359 253.892 389.663 255.741 390.022 258.711C390.21 260.271 390.415 261.981 390.806 263.438C390.911 263.827 391.032 264.211 391.172 264.588C390.556 265.071 389.981 265.448 389.479 265.645C389.152 265.773 388.865 265.829 388.613 265.829C388.393 265.832 388.176 265.783 387.978 265.686C386.217 264.813 386.066 260.005 387.5 254.505ZM380.194 289.196C375.511 301.488 375.102 309.787 374.721 318.089L374.707 318.402L374.693 318.714C374.316 326.936 373.898 334.616 371.816 335.97C371.592 336.115 371.346 336.183 371.073 336.183C368.889 336.183 365.487 331.962 363.945 329.395C362.69 327.308 362.848 326.696 364.09 322.167C364.451 320.849 364.903 319.201 365.43 317.105C366.624 312.353 368.222 305.222 369.81 298.131C371.318 291.397 372.829 284.651 374.004 279.901C376.349 270.417 377.358 268.868 379.785 265.108L379.994 264.784L379.995 264.782L380 264.774L380 264.776L380.439 264.093L380.931 263.329C382.785 260.452 384.994 257.135 386.683 255.3C385.464 260.537 385.633 265.204 387.707 266.233C387.989 266.371 388.299 266.442 388.612 266.439C388.956 266.439 389.318 266.363 389.701 266.212C390.215 266.011 390.797 265.634 391.413 265.161C391.473 265.303 391.529 265.452 391.593 265.587C387.173 273.38 382.945 281.974 380.194 289.196ZM423.409 240.216C421.586 241.71 418.868 243.575 415.862 245.637C410.845 249.079 405.057 253.047 401.597 256.588C401.138 257.057 400.697 257.544 400.276 258.048C397.457 261.428 396.669 264.317 396.164 266.171C395.915 267.087 395.752 267.658 395.498 267.962C395.35 268.139 395.172 268.218 394.963 268.218C394.263 268.218 393.167 267.316 392.284 265.602C392.796 264.704 393.314 263.809 393.839 262.918C397.411 259.139 401.772 252.78 405.485 246.228C410.276 241.04 414.377 239.372 419.778 239.213C420.062 239.205 420.347 239.201 420.638 239.201C421.803 239.201 423.035 239.296 424.289 239.438C424.011 239.691 423.748 239.937 423.409 240.216ZM351.829 359.487C350.231 358.507 348.51 357.45 346.707 356.962C345.629 356.67 344.532 356.584 343.565 356.584C342.769 356.584 342.092 356.642 341.546 356.694C342.419 356.251 343.812 355.585 345.34 354.856C348.177 353.504 351.473 351.938 351.87 351.541C351.877 351.534 351.885 351.525 351.894 351.516L351.894 351.515C351.914 351.493 351.99 351.406 351.99 351.276C351.99 350.922 351.583 350.942 351.63 350.943H351.614C351.527 350.943 351.419 350.96 351.307 350.983C350.759 351.095 349.587 351.456 348.165 351.894C345.78 352.628 342.637 353.595 340.235 354.085C338.979 354.341 337.938 354.463 337.116 354.463C336.311 354.463 335.754 354.345 335.414 354.151C334.948 353.885 334.787 353.398 335.341 352.427C336.239 350.854 338.802 348.518 341.633 347.009C341.828 347.005 342.011 346.994 342.212 346.994C343.628 346.994 345.164 347.087 346.572 347.173C347.734 347.244 348.81 347.309 349.636 347.309C350.202 347.309 350.688 347.279 351.008 347.182C351.16 347.135 351.307 347.065 351.412 346.952C351.477 346.885 351.523 346.801 351.545 346.71C351.566 346.618 351.563 346.523 351.536 346.433L351.533 346.424C351.298 345.652 349.25 344.887 346.997 344.887C346.252 344.887 345.509 344.968 344.782 345.13C343.686 345.375 342.561 345.833 341.469 346.404C340.761 346.423 340.08 346.462 339.487 346.555C338.993 346.633 338.549 346.743 338.152 346.876C336.784 347.333 335.959 348.063 335.243 348.696C334.641 349.226 334.139 349.664 333.451 349.894C333.056 350.026 332.588 350.092 332.101 350.092C331.656 350.092 331.203 350.037 330.787 349.931C329.564 349.621 328.903 348.98 329.096 348.221C329.312 347.369 330.459 346.241 331.82 345.167C337.439 344.081 343.636 342.007 345.448 341.138C345.748 340.995 345.981 340.86 346.101 340.725C346.156 340.663 346.278 340.494 346.181 340.291V340.29C346.118 340.158 345.997 340.105 345.938 340.084C345.804 340.035 345.619 340.024 345.441 340.024C344.696 340.024 343.244 340.23 341.922 340.416C341.291 340.505 340.681 340.591 340.179 340.651C339.641 340.716 339.226 340.751 338.871 340.782C338.616 340.804 338.398 340.822 338.189 340.847C337.335 340.949 336.788 341.152 335.449 341.952C334.459 342.542 332.938 343.521 331.565 344.596C330.042 344.886 328.564 345.105 327.241 345.199C326.715 345.235 326.22 345.253 325.745 345.253C323.008 345.253 321.282 344.662 320.745 343.886C320.349 343.312 320.528 342.401 322.251 341.21C326.108 338.544 336.642 335.338 343.722 335.338C343.857 335.338 343.964 335.339 344.096 335.341C346.434 335.38 348.354 335.789 349.961 336.347C351.877 337.012 353.348 337.886 354.565 338.61C355.387 339.099 356.118 339.535 356.778 339.764C357.287 339.941 357.749 339.994 358.172 339.994C358.504 339.994 358.815 339.961 359.09 339.931C359.345 339.904 359.563 339.881 359.774 339.881C360.386 339.881 360.955 340.064 361.626 341.404C363.063 344.273 364.72 351.981 364.513 356.107C364.315 360.044 362.45 360.582 359.265 360.583H359.254C357.439 360.583 355.236 360.391 352.884 360.126C352.538 359.921 352.187 359.706 351.829 359.487ZM350.831 346.599C350.608 346.667 350.204 346.7 349.636 346.7C348.834 346.7 347.776 346.636 346.609 346.565C345.426 346.493 344.149 346.426 342.913 346.403C343.583 346.118 344.255 345.871 344.915 345.724C345.598 345.572 346.297 345.495 346.997 345.496C349.246 345.496 350.722 346.243 350.918 346.558C350.9 346.57 350.896 346.579 350.831 346.599ZM338.923 341.388C339.282 341.357 339.7 341.321 340.251 341.255C340.763 341.194 341.377 341.108 342.007 341.019C343.142 340.859 344.285 340.702 345.038 340.654C343.261 341.469 338.029 343.221 332.96 344.313C333.966 343.592 334.984 342.938 335.761 342.474C337.067 341.695 337.528 341.539 338.262 341.451C338.456 341.428 338.667 341.41 338.923 341.388ZM356.787 361.721C356.502 361.696 356.219 361.644 355.943 361.568C355.4 361.421 354.838 361.173 354.262 360.883C356.08 361.064 357.794 361.192 359.255 361.192H359.265C359.421 361.192 359.563 361.181 359.715 361.178C358.802 361.479 357.968 361.735 357.128 361.735C357.014 361.736 356.901 361.731 356.787 361.721ZM380.99 346.926C380.66 344.341 379.627 342.285 378.251 340.7C378.608 340.625 379.015 340.598 379.484 340.594C379.755 340.871 380.008 341.165 380.241 341.474C384.633 347.327 385.323 362.263 382.237 366.145C382.08 366.343 381.899 366.521 381.699 366.675C381.265 366.391 380.919 366.039 380.665 365.6C380.362 365.076 380.171 364.41 380.07 363.623C379.814 361.615 380.154 358.936 380.519 356.078C380.917 352.975 381.342 349.672 380.99 346.926ZM381.54 340.611H381.582C385.062 340.607 390.712 340.104 397.554 338.427C400.341 337.744 403.333 336.864 406.156 336.034C410.272 334.823 414.024 333.72 416.366 333.443C416.722 333.399 417.08 333.376 417.438 333.373C418.653 333.373 419.393 333.7 420.174 334.328C420.596 334.668 421.026 335.091 421.554 335.611C421.83 335.882 422.107 336.151 422.386 336.418C427.717 345.255 434.391 348.098 436.473 348.098C436.706 348.098 436.945 348.064 437.116 347.946L437.118 347.944C437.28 347.831 437.358 347.658 437.345 347.47C437.332 347.291 437.241 347.121 437.138 346.973C436.438 345.971 433.673 344.07 430.819 342.1C428.737 340.664 426.564 339.164 424.972 337.885C424.241 337.296 423.535 336.675 422.857 336.025C421.529 333.811 420.28 331.227 419.214 328.179C413.445 311.685 412.985 282.322 418.708 268.683C421.975 260.897 427.241 258.282 432.527 258.282C436.456 258.282 440.425 259.728 443.624 261.638C451.127 266.12 454.311 273.107 454.553 280.924C454.629 283.389 454.412 285.944 454.008 288.772C453.628 291.433 453.084 294.329 452.464 297.628C451.652 301.951 450.71 306.969 449.848 313.002C449.538 315.179 449.241 317.461 448.93 319.848C447.016 334.555 444.714 352.148 437.263 360.587C431.767 366.812 423.421 368.078 415.031 368.078C414.07 368.078 413.088 368.061 412.132 368.034C410.194 367.978 408.304 367.879 406.441 367.781C404.7 367.69 403.002 367.601 401.39 367.554C400.324 367.524 399.293 367.511 398.3 367.511C396.007 367.511 393.92 367.577 392.031 367.637C390.482 367.686 389.069 367.73 387.808 367.73C385.35 367.73 383.523 367.552 382.263 366.979C382.418 366.84 382.573 366.702 382.714 366.525C386.022 362.363 385.233 347.112 380.728 341.109C380.588 340.922 380.435 340.768 380.288 340.598C380.349 340.599 380.4 340.599 380.465 340.6C380.789 340.605 381.162 340.611 381.54 340.611ZM424.081 337.934C424.25 338.075 424.408 338.212 424.591 338.359C426.205 339.656 428.396 341.168 430.473 342.601C433.401 344.622 436.021 346.437 436.639 347.321C436.702 347.412 436.704 347.437 436.713 347.464C436.668 347.477 436.601 347.489 436.473 347.489C434.802 347.489 429.088 345.192 424.081 337.934ZM366.847 338.375C366.296 338.513 365.854 338.624 365.54 338.675C365.51 338.68 365.498 338.678 365.471 338.682C366.159 338.234 367.957 337.495 370.17 337.495C370.443 337.495 370.718 337.506 370.998 337.531C371.032 337.534 371.067 337.546 371.1 337.549C369.448 337.723 367.948 338.099 366.847 338.375ZM375.401 338.351C376.61 338.629 377.779 339.147 378.829 340.01C378.444 340.038 378.101 340.101 377.784 340.201C377.055 339.459 376.256 338.841 375.401 338.351ZM374.769 363.727C374.501 362.642 374.162 361.265 374.02 359.523C373.626 354.702 374.739 347.065 375.929 343.508C376.436 341.993 376.941 341.273 377.626 340.921C379.01 342.443 380.06 344.447 380.386 347.003C380.725 349.655 380.315 352.875 379.916 356C379.554 358.829 379.197 361.596 379.466 363.7C379.573 364.534 379.781 365.287 380.138 365.905C380.397 366.352 380.74 366.707 381.138 367.008C380.764 367.171 380.359 367.25 379.923 367.25C379.152 367.25 378.283 367.02 377.341 366.63C376.627 366.334 375.881 365.942 375.123 365.512C375.122 365.503 375.125 365.496 375.124 365.487C375.084 365.001 374.937 364.409 374.769 363.727Z" fill="black"/>
<path d="M382.105 337.199L382.034 336.378C381.321 328.46 381.19 322.356 381.643 318.065C382.45 310.103 383.885 302.111 385.948 294.091C389.218 281.696 394.792 270.606 402.669 260.821C405.96 256.645 411.203 252.033 418.397 246.986C422.605 244.111 426.88 242.304 431.221 241.564C434.401 241.023 437.532 241.709 440.615 243.622C446.339 246.894 449.425 249.867 449.874 252.538C449.929 254.275 447.869 255.779 443.695 257.049C442.036 257.402 440.072 257.537 437.805 257.454C427.652 256.442 422.226 256.106 421.528 256.444C417.809 256.848 415.303 258.011 414.013 259.93C412.094 263.018 410.869 265.673 410.339 267.895L409.447 271.695C408.994 274.277 408.747 276.921 408.706 279.629C408.664 282.336 408.752 285.076 408.967 287.846L410.97 308.382C411.035 309.267 411.174 310.144 411.387 311.005L413.64 318.839C414.033 320.562 413.987 322.256 413.502 323.923C412.478 326.855 410.712 329.329 408.204 331.345C405.696 333.361 402.847 335.013 399.656 336.3C396.703 337.553 393.335 338.603 389.549 339.45C387.504 339.428 385.022 338.678 382.105 337.199Z" fill="#FFC517"/>
<path d="M109.553 282.053L109.639 281.912C113.049 276.235 116.285 272.978 119.348 272.142C123.624 271.331 127.784 272.678 131.83 276.183C138.431 284.179 143.803 292.275 147.946 300.473C149.536 303.219 153.7 311.722 160.438 325.982L166.386 340.243C167.084 341.78 167.872 343.275 168.744 344.72C170.429 347.606 172.638 349.976 175.373 351.832C177.049 352.459 178.541 351.255 179.85 348.22C180.518 346.772 180.986 345.346 181.253 343.94C182.14 337.025 182.733 333.372 183.03 332.982C183.43 331.103 184.555 329.344 186.404 327.705C186.95 327.139 188.103 327.252 189.86 328.042C190.274 328.092 191.357 329.072 193.108 330.982C195.989 335.259 196.761 338.24 195.424 339.928C190.702 347.239 186.089 352.412 181.586 355.447C177.27 358.247 173.148 359.149 169.218 358.153C161.025 355.929 154.727 352.125 150.324 346.741C149.078 345.145 148.116 343.421 147.439 341.566C146.987 340.443 145.968 336.585 144.38 329.994C144.02 328.749 143.572 327.532 143.039 326.352C142.038 324.011 140.494 322.151 138.408 320.771C136.708 319.773 134.807 319.297 132.705 319.342C132.239 319.261 130.701 319.424 128.089 319.829C119.56 321.831 115.389 322.687 115.576 322.399C113.179 322.654 111.116 322.286 109.389 321.294C108.194 320.831 106.902 319.044 105.514 315.932C105.093 315.347 104.737 313.238 104.446 309.606C104.417 305.762 105.095 300.511 106.481 293.851C106.927 291.332 107.951 287.399 109.553 282.053Z" fill="#FFC517"/>
<path d="M129.768 225.107L129.698 224.919C126.294 215.751 125.574 209.765 127.538 206.961C129.858 202.61 135.388 198.697 144.128 195.225C147.139 194.109 150.197 193.438 153.305 193.21C156.634 193.037 159.597 193.447 162.192 194.442C165.462 195.736 167.398 196.625 168 197.108C169.255 197.841 170.444 198.657 171.568 199.557C172.673 200.44 173.698 201.419 174.629 202.484L175.9 204.112C176.675 205.212 177.307 206.405 177.781 207.664L178.335 209.577C178.506 210.431 178.446 211.23 178.157 211.974L177.594 213.052C177.119 213.744 176.502 214.386 175.744 214.98C173.426 216.833 168.587 219.028 161.227 221.565C152.8 224.651 144.109 227.123 135.156 228.981C133.599 228.945 131.803 227.653 129.768 225.107ZM376.538 180.31L377.755 180.747L391.931 185.756C395.382 187.385 397.413 188.449 398.023 188.948C400.646 190.584 403.015 192.49 405.13 194.666C407.597 197.493 408.961 199.264 409.222 199.978L409.913 201.618C410.185 202.733 410.192 203.883 409.934 205.068C409.676 206.252 409.266 207.461 408.703 208.694C406.452 213.063 405.07 216.207 404.559 218.125C404.213 219.389 404.107 220.641 404.241 221.881C404.242 222.23 404.489 222.525 404.983 222.766C405.928 223.102 407.187 222.935 408.76 222.265L409.445 221.833L412.539 218.87C416.607 214.272 419.705 208.702 421.832 202.16L423.105 197.374L423.845 192.587L423.997 187.919L423.504 183.494L422.309 179.43L420.358 175.849C418.037 173.223 416.672 171.882 416.264 171.827C412.88 169.46 410.292 167.944 408.501 167.28C403.344 165.231 399.302 164.455 396.376 164.953C392.057 164.635 385.444 169.753 376.538 180.31Z" fill="#1D305D"/>
</svg>
