<svg width="290" height="55" viewBox="0 0 290 55" fill="none" xmlns="http://www.w3.org/2000/svg">
<rect width="289.999" height="55" rx="10" fill="#FFC517"/>
<path d="M234.468 0H270C279.428 0 284.142 0 287.071 2.92893C290 5.85786 290 10.5719 290 20V35C290 44.4281 290 49.1421 287.071 52.0711C284.142 55 279.428 55 270 55H234.468V0Z" fill="#C99A0D"/>
<g clip-path="url(#clip0_29_3808)">
<path d="M269.948 23.375L274.576 27.5L269.948 31.625L271.491 27.5L269.948 23.375Z" fill="white"/>
<path d="M274.575 27.5H249.895M274.575 27.5L269.948 23.375M274.575 27.5L269.948 31.625M269.948 23.375L268.405 22M269.948 23.375L271.49 27.5L269.948 31.625M269.948 31.625L268.405 33" stroke="white"/>
</g>
<path d="M48.69 23.092H45.324V20.968H54.396V23.092H51.03V34H48.69V23.092ZM66.4387 34H63.7207L60.1747 28.582L58.4647 28.564V34H56.1247V20.968H61.1647C63.6667 20.968 65.6467 22.156 65.6467 24.73C65.6467 26.71 64.3147 27.916 62.7127 28.366L66.4387 34ZM58.4647 23.092V26.53H60.8767C62.2987 26.53 63.2347 25.936 63.2347 24.73C63.2347 23.524 62.2987 23.092 60.8767 23.092H58.4647ZM70.7574 29.842L66.1674 20.968H68.9034L71.9274 27.178L74.9514 20.968H77.6874L73.0974 29.842V34H70.7574V29.842ZM82.7907 20.968H85.1307V34H82.7907V20.968ZM90.2271 23.092H86.8611V20.968H95.9331V23.092H92.5671V34H90.2271V23.092ZM111.474 34.216L103.5 25.738L103.482 34H101.142V20.752H101.862L109.836 29.212L109.854 20.968H112.194V34.216H111.474ZM127.684 27.466C127.684 31.174 124.768 34.216 120.97 34.216C117.172 34.216 114.256 31.174 114.256 27.466C114.256 23.758 117.172 20.716 120.97 20.716C124.768 20.716 127.684 23.758 127.684 27.466ZM116.596 27.466C116.596 29.842 118.414 32.02 120.97 32.02C123.508 32.02 125.344 29.842 125.344 27.466C125.344 25.09 123.508 22.912 120.97 22.912C118.414 22.912 116.596 25.09 116.596 27.466ZM136.935 20.752H137.655L140.949 29.05L144.099 20.968H146.637L141.381 34.216H140.661L137.295 25.612L133.929 34.216H133.209L127.953 20.968H130.491L133.641 29.05L136.935 20.752Z" fill="#1D305D"/>
<defs>
<clipPath id="clip0_29_3808">
<rect width="26.2233" height="13.75" fill="white" transform="translate(249.892 20.625)"/>
</clipPath>
</defs>
</svg>
